<mxfile host="app.diagrams.net" modified="2022-08-18T11:14:52.270Z" agent="5.0 (Macintosh; Intel Mac OS X 10_15_7) AppleWebKit/537.36 (KHTML, like Gecko) Chrome/103.0.5060.134 Safari/537.36" etag="PSuhbTdRjTfmUV8w-Cqx" version="20.2.3" type="github" pages="2">
  <diagram id="prtHgNgQTEPvFCAcTncT" name="Demand">
    <mxGraphModel dx="1401" dy="1202" grid="0" gridSize="10" guides="1" tooltips="1" connect="1" arrows="1" fold="1" page="1" pageScale="1" pageWidth="1169" pageHeight="827" math="0" shadow="0">
      <root>
        <mxCell id="0" />
        <mxCell id="1" parent="0" />
        <mxCell id="kkAvzBFjIjQBJB4-EslT-25" value="3) Prioritisation &amp;amp; Approval" style="html=1;outlineConnect=0;whiteSpace=wrap;fillColor=#fff2cc;shape=mxgraph.archimate3.application;appType=func;archiType=rounded;fontSize=9;align=left;strokeColor=#d6b656;gradientColor=#ffffff;verticalAlign=top;" parent="1" vertex="1">
          <mxGeometry x="310" y="381" width="220" height="250" as="geometry" />
        </mxCell>
        <mxCell id="LoJ1NkJb5luaTKHcD8Pn-2" value="Prioritisation &amp;amp; Approval" style="html=1;outlineConnect=0;whiteSpace=wrap;fillColor=#fff2cc;shape=mxgraph.archimate3.application;appType=func;archiType=rounded;fontSize=9;align=left;strokeColor=#d6b656;gradientColor=#ffffff;verticalAlign=top;" parent="1" vertex="1">
          <mxGeometry x="423" y="401" width="97" height="200" as="geometry" />
        </mxCell>
        <mxCell id="LoJ1NkJb5luaTKHcD8Pn-1" value="Prioritisation" style="html=1;outlineConnect=0;whiteSpace=wrap;fillColor=#fff2cc;shape=mxgraph.archimate3.application;appType=func;archiType=rounded;fontSize=9;align=left;strokeColor=#d6b656;gradientColor=#ffffff;verticalAlign=top;" parent="1" vertex="1">
          <mxGeometry x="320" y="401" width="90" height="200" as="geometry" />
        </mxCell>
        <mxCell id="kkAvzBFjIjQBJB4-EslT-33" value="9) Closed" style="html=1;outlineConnect=0;whiteSpace=wrap;fillColor=#fff2cc;shape=mxgraph.archimate3.application;appType=func;archiType=rounded;fontSize=9;align=left;strokeColor=#d6b656;gradientColor=#ffffff;verticalAlign=top;" parent="1" vertex="1">
          <mxGeometry x="1060" y="381" width="105" height="200" as="geometry" />
        </mxCell>
        <mxCell id="kkAvzBFjIjQBJB4-EslT-32" value="8) Deploy" style="html=1;outlineConnect=0;whiteSpace=wrap;fillColor=#fff2cc;shape=mxgraph.archimate3.application;appType=func;archiType=rounded;fontSize=9;align=left;strokeColor=#d6b656;gradientColor=#ffffff;verticalAlign=top;" parent="1" vertex="1">
          <mxGeometry x="955" y="381" width="105" height="200" as="geometry" />
        </mxCell>
        <mxCell id="kkAvzBFjIjQBJB4-EslT-31" value="7) Test" style="html=1;outlineConnect=0;whiteSpace=wrap;fillColor=#fff2cc;shape=mxgraph.archimate3.application;appType=func;archiType=rounded;fontSize=9;align=left;strokeColor=#d6b656;gradientColor=#ffffff;verticalAlign=top;" parent="1" vertex="1">
          <mxGeometry x="850" y="381" width="105" height="200" as="geometry" />
        </mxCell>
        <mxCell id="kkAvzBFjIjQBJB4-EslT-30" value="6) Build" style="html=1;outlineConnect=0;whiteSpace=wrap;fillColor=#fff2cc;shape=mxgraph.archimate3.application;appType=func;archiType=rounded;fontSize=9;align=left;strokeColor=#d6b656;gradientColor=#ffffff;verticalAlign=top;" parent="1" vertex="1">
          <mxGeometry x="750" y="381" width="100" height="200" as="geometry" />
        </mxCell>
        <mxCell id="kkAvzBFjIjQBJB4-EslT-24" value="2) Global Assessment" style="html=1;outlineConnect=0;whiteSpace=wrap;fillColor=#fff2cc;shape=mxgraph.archimate3.application;appType=func;archiType=rounded;fontSize=9;align=left;strokeColor=#d6b656;gradientColor=#ffffff;verticalAlign=top;" parent="1" vertex="1">
          <mxGeometry x="210" y="381" width="100" height="90" as="geometry" />
        </mxCell>
        <mxCell id="kkAvzBFjIjQBJB4-EslT-22" value="1) Demand Creation &amp;amp; Qualification" style="html=1;outlineConnect=0;whiteSpace=wrap;fillColor=#fff2cc;shape=mxgraph.archimate3.application;appType=func;archiType=rounded;fontSize=9;align=left;strokeColor=#d6b656;gradientColor=#ffffff;verticalAlign=top;" parent="1" vertex="1">
          <mxGeometry y="381" width="210" height="90" as="geometry" />
        </mxCell>
        <mxCell id="kkAvzBFjIjQBJB4-EslT-13" value="" style="edgeStyle=orthogonalEdgeStyle;rounded=0;orthogonalLoop=1;jettySize=auto;html=1;fontSize=9;" parent="1" source="pSK2qEDxXkrErEkI7SS4-2" target="kkAvzBFjIjQBJB4-EslT-2" edge="1">
          <mxGeometry relative="1" as="geometry" />
        </mxCell>
        <mxCell id="pSK2qEDxXkrErEkI7SS4-2" value="1. Demand Formulation" style="html=1;outlineConnect=0;whiteSpace=wrap;fillColor=#f8cecc;shape=mxgraph.archimate3.application;appType=proc;archiType=rounded;fontSize=9;verticalAlign=middle;align=center;strokeColor=#b85450;" parent="1" vertex="1">
          <mxGeometry x="10" y="411" width="80" height="40" as="geometry" />
        </mxCell>
        <mxCell id="kkAvzBFjIjQBJB4-EslT-14" value="" style="edgeStyle=orthogonalEdgeStyle;rounded=0;orthogonalLoop=1;jettySize=auto;html=1;fontSize=9;" parent="1" source="kkAvzBFjIjQBJB4-EslT-2" target="kkAvzBFjIjQBJB4-EslT-3" edge="1">
          <mxGeometry relative="1" as="geometry" />
        </mxCell>
        <mxCell id="kkAvzBFjIjQBJB4-EslT-2" value="3. National Qualification" style="html=1;outlineConnect=0;whiteSpace=wrap;fillColor=#f8cecc;shape=mxgraph.archimate3.application;appType=proc;archiType=rounded;fontSize=9;strokeColor=#b85450;" parent="1" vertex="1">
          <mxGeometry x="110" y="411" width="80" height="40" as="geometry" />
        </mxCell>
        <mxCell id="kkAvzBFjIjQBJB4-EslT-15" value="" style="edgeStyle=orthogonalEdgeStyle;rounded=0;orthogonalLoop=1;jettySize=auto;html=1;fontSize=9;entryX=-0.014;entryY=0.629;entryDx=0;entryDy=0;entryPerimeter=0;exitX=0.5;exitY=1;exitDx=0;exitDy=0;exitPerimeter=0;dashed=1;" parent="1" source="kkAvzBFjIjQBJB4-EslT-3" target="kkAvzBFjIjQBJB4-EslT-26" edge="1">
          <mxGeometry relative="1" as="geometry">
            <Array as="points">
              <mxPoint x="260" y="557" />
            </Array>
          </mxGeometry>
        </mxCell>
        <mxCell id="kkAvzBFjIjQBJB4-EslT-3" value="4. Global Assessment" style="html=1;outlineConnect=0;whiteSpace=wrap;fillColor=#f8cecc;shape=mxgraph.archimate3.application;appType=proc;archiType=rounded;fontSize=9;strokeColor=#b85450;" parent="1" vertex="1">
          <mxGeometry x="220" y="411" width="80" height="40" as="geometry" />
        </mxCell>
        <mxCell id="kkAvzBFjIjQBJB4-EslT-16" value="" style="edgeStyle=orthogonalEdgeStyle;rounded=0;orthogonalLoop=1;jettySize=auto;html=1;fontSize=9;entryX=0;entryY=0.5;entryDx=0;entryDy=0;entryPerimeter=0;dashed=1;" parent="1" source="kkAvzBFjIjQBJB4-EslT-4" target="kkAvzBFjIjQBJB4-EslT-28" edge="1">
          <mxGeometry relative="1" as="geometry">
            <Array as="points">
              <mxPoint x="420" y="447" />
              <mxPoint x="420" y="552" />
            </Array>
          </mxGeometry>
        </mxCell>
        <mxCell id="kkAvzBFjIjQBJB4-EslT-4" value="6. Prioritisation" style="html=1;outlineConnect=0;whiteSpace=wrap;fillColor=#f8cecc;shape=mxgraph.archimate3.application;appType=proc;archiType=rounded;fontSize=9;strokeColor=#b85450;" parent="1" vertex="1">
          <mxGeometry x="325" y="427" width="80" height="40" as="geometry" />
        </mxCell>
        <mxCell id="kkAvzBFjIjQBJB4-EslT-17" value="" style="edgeStyle=orthogonalEdgeStyle;rounded=0;orthogonalLoop=1;jettySize=auto;html=1;fontSize=9;dashed=1;" parent="1" source="kkAvzBFjIjQBJB4-EslT-5" target="kkAvzBFjIjQBJB4-EslT-7" edge="1">
          <mxGeometry relative="1" as="geometry">
            <Array as="points">
              <mxPoint x="490" y="331" />
              <mxPoint x="790" y="331" />
            </Array>
          </mxGeometry>
        </mxCell>
        <mxCell id="kkAvzBFjIjQBJB4-EslT-5" value="9. Approved &amp;amp; Prioritised" style="html=1;outlineConnect=0;whiteSpace=wrap;fillColor=#f8cecc;shape=mxgraph.archimate3.application;appType=proc;archiType=rounded;fontSize=9;strokeColor=#b85450;" parent="1" vertex="1">
          <mxGeometry x="433" y="427" width="80" height="40" as="geometry" />
        </mxCell>
        <mxCell id="kkAvzBFjIjQBJB4-EslT-19" value="" style="edgeStyle=orthogonalEdgeStyle;rounded=0;orthogonalLoop=1;jettySize=auto;html=1;fontSize=9;" parent="1" source="kkAvzBFjIjQBJB4-EslT-7" target="kkAvzBFjIjQBJB4-EslT-8" edge="1">
          <mxGeometry relative="1" as="geometry" />
        </mxCell>
        <mxCell id="kkAvzBFjIjQBJB4-EslT-7" value="23. Build" style="html=1;outlineConnect=0;whiteSpace=wrap;fillColor=#ffff99;shape=mxgraph.archimate3.application;appType=proc;archiType=rounded;gradientColor=#ffffff;fontSize=9;" parent="1" vertex="1">
          <mxGeometry x="760" y="411" width="80" height="40" as="geometry" />
        </mxCell>
        <mxCell id="kkAvzBFjIjQBJB4-EslT-20" value="" style="edgeStyle=orthogonalEdgeStyle;rounded=0;orthogonalLoop=1;jettySize=auto;html=1;fontSize=9;" parent="1" source="kkAvzBFjIjQBJB4-EslT-8" target="kkAvzBFjIjQBJB4-EslT-9" edge="1">
          <mxGeometry relative="1" as="geometry" />
        </mxCell>
        <mxCell id="kkAvzBFjIjQBJB4-EslT-8" value="24. Test" style="html=1;outlineConnect=0;whiteSpace=wrap;fillColor=#ffff99;shape=mxgraph.archimate3.application;appType=proc;archiType=rounded;gradientColor=#ffffff;fontSize=9;" parent="1" vertex="1">
          <mxGeometry x="862.5" y="411" width="80" height="40" as="geometry" />
        </mxCell>
        <mxCell id="kkAvzBFjIjQBJB4-EslT-21" value="" style="edgeStyle=orthogonalEdgeStyle;rounded=0;orthogonalLoop=1;jettySize=auto;html=1;fontSize=9;" parent="1" source="kkAvzBFjIjQBJB4-EslT-9" target="kkAvzBFjIjQBJB4-EslT-10" edge="1">
          <mxGeometry relative="1" as="geometry" />
        </mxCell>
        <mxCell id="kkAvzBFjIjQBJB4-EslT-9" value="25. Deploy" style="html=1;outlineConnect=0;whiteSpace=wrap;fillColor=#ffff99;shape=mxgraph.archimate3.application;appType=proc;archiType=rounded;gradientColor=#ffffff;fontSize=9;" parent="1" vertex="1">
          <mxGeometry x="967.5" y="411" width="80" height="40" as="geometry" />
        </mxCell>
        <mxCell id="kkAvzBFjIjQBJB4-EslT-10" value="26. Closed" style="html=1;outlineConnect=0;whiteSpace=wrap;fillColor=#f8cecc;shape=mxgraph.archimate3.application;appType=proc;archiType=rounded;fontSize=9;strokeColor=#b85450;" parent="1" vertex="1">
          <mxGeometry x="1072.5" y="411" width="80" height="40" as="geometry" />
        </mxCell>
        <mxCell id="kkAvzBFjIjQBJB4-EslT-27" value="" style="edgeStyle=orthogonalEdgeStyle;rounded=0;orthogonalLoop=1;jettySize=auto;html=1;fontSize=9;" parent="1" source="kkAvzBFjIjQBJB4-EslT-26" target="kkAvzBFjIjQBJB4-EslT-4" edge="1">
          <mxGeometry relative="1" as="geometry" />
        </mxCell>
        <mxCell id="kkAvzBFjIjQBJB4-EslT-26" value="5. Waiting for Prioritisation" style="html=1;outlineConnect=0;whiteSpace=wrap;shape=mxgraph.archimate3.application;appType=proc;archiType=rounded;fontSize=9;sketch=0;shadow=0;dashed=1;gradientColor=#ffffff;fillColor=#E6E6E6;" parent="1" vertex="1">
          <mxGeometry x="325" y="532" width="80" height="40" as="geometry" />
        </mxCell>
        <mxCell id="kkAvzBFjIjQBJB4-EslT-29" value="" style="edgeStyle=orthogonalEdgeStyle;rounded=0;orthogonalLoop=1;jettySize=auto;html=1;fontSize=9;" parent="1" source="kkAvzBFjIjQBJB4-EslT-28" target="kkAvzBFjIjQBJB4-EslT-5" edge="1">
          <mxGeometry relative="1" as="geometry">
            <Array as="points">
              <mxPoint x="470" y="507" />
              <mxPoint x="470" y="507" />
            </Array>
          </mxGeometry>
        </mxCell>
        <mxCell id="kkAvzBFjIjQBJB4-EslT-28" value="8. Waiting for approval" style="html=1;outlineConnect=0;whiteSpace=wrap;shape=mxgraph.archimate3.application;appType=proc;archiType=rounded;gradientColor=#ffffff;fontSize=9;dashed=1;fillColor=#E6E6E6;" parent="1" vertex="1">
          <mxGeometry x="433" y="532" width="80" height="40" as="geometry" />
        </mxCell>
      </root>
    </mxGraphModel>
  </diagram>
  <diagram name="StatesFlow" id="GLIfP1K7z3QVpt4zOmzY">
    <mxGraphModel dx="1401" dy="1202" grid="0" gridSize="10" guides="1" tooltips="1" connect="1" arrows="1" fold="1" page="1" pageScale="1" pageWidth="1169" pageHeight="827" math="0" shadow="0">
      <root>
        <mxCell id="afYJyTv2eytd4Z8SvwU5-0" />
        <mxCell id="afYJyTv2eytd4Z8SvwU5-1" parent="afYJyTv2eytd4Z8SvwU5-0" />
        <mxCell id="afYJyTv2eytd4Z8SvwU5-12" value="2) Global Assessment" style="html=1;outlineConnect=0;whiteSpace=wrap;fillColor=#fff2cc;shape=mxgraph.archimate3.application;appType=func;archiType=rounded;fontSize=9;align=left;strokeColor=#d6b656;gradientColor=#ffffff;verticalAlign=top;" vertex="1" parent="afYJyTv2eytd4Z8SvwU5-1">
          <mxGeometry x="210" y="80" width="100" height="90" as="geometry" />
        </mxCell>
        <mxCell id="afYJyTv2eytd4Z8SvwU5-13" value="1) Demand Creation &amp;amp; Qualification" style="html=1;outlineConnect=0;whiteSpace=wrap;fillColor=#fff2cc;shape=mxgraph.archimate3.application;appType=func;archiType=rounded;fontSize=9;align=left;strokeColor=#d6b656;gradientColor=#ffffff;verticalAlign=top;" vertex="1" parent="afYJyTv2eytd4Z8SvwU5-1">
          <mxGeometry y="80" width="210" height="90" as="geometry" />
        </mxCell>
        <mxCell id="afYJyTv2eytd4Z8SvwU5-14" value="" style="edgeStyle=orthogonalEdgeStyle;rounded=0;orthogonalLoop=1;jettySize=auto;html=1;fontSize=9;" edge="1" parent="afYJyTv2eytd4Z8SvwU5-1" source="afYJyTv2eytd4Z8SvwU5-15" target="afYJyTv2eytd4Z8SvwU5-17">
          <mxGeometry relative="1" as="geometry" />
        </mxCell>
        <mxCell id="afYJyTv2eytd4Z8SvwU5-15" value="1. Demand Formulation" style="html=1;outlineConnect=0;whiteSpace=wrap;fillColor=#f8cecc;shape=mxgraph.archimate3.application;appType=proc;archiType=rounded;fontSize=9;verticalAlign=middle;align=center;strokeColor=#b85450;" vertex="1" parent="afYJyTv2eytd4Z8SvwU5-1">
          <mxGeometry x="10" y="110" width="80" height="40" as="geometry" />
        </mxCell>
        <mxCell id="afYJyTv2eytd4Z8SvwU5-16" value="" style="edgeStyle=orthogonalEdgeStyle;rounded=0;orthogonalLoop=1;jettySize=auto;html=1;fontSize=9;" edge="1" parent="afYJyTv2eytd4Z8SvwU5-1" source="afYJyTv2eytd4Z8SvwU5-17" target="afYJyTv2eytd4Z8SvwU5-19">
          <mxGeometry relative="1" as="geometry" />
        </mxCell>
        <mxCell id="afYJyTv2eytd4Z8SvwU5-17" value="3. National Qualification" style="html=1;outlineConnect=0;whiteSpace=wrap;fillColor=#f8cecc;shape=mxgraph.archimate3.application;appType=proc;archiType=rounded;fontSize=9;strokeColor=#b85450;" vertex="1" parent="afYJyTv2eytd4Z8SvwU5-1">
          <mxGeometry x="110" y="110" width="80" height="40" as="geometry" />
        </mxCell>
        <mxCell id="afYJyTv2eytd4Z8SvwU5-18" value="" style="edgeStyle=orthogonalEdgeStyle;rounded=0;orthogonalLoop=1;jettySize=auto;html=1;fontSize=9;entryX=-0.014;entryY=0.629;entryDx=0;entryDy=0;entryPerimeter=0;exitX=0.5;exitY=1;exitDx=0;exitDy=0;exitPerimeter=0;dashed=1;" edge="1" parent="afYJyTv2eytd4Z8SvwU5-1" source="afYJyTv2eytd4Z8SvwU5-19">
          <mxGeometry relative="1" as="geometry">
            <Array as="points">
              <mxPoint x="260" y="256" />
            </Array>
            <mxPoint x="323.8800000000001" y="256.1600000000001" as="targetPoint" />
          </mxGeometry>
        </mxCell>
        <mxCell id="afYJyTv2eytd4Z8SvwU5-19" value="4. Global Assessment" style="html=1;outlineConnect=0;whiteSpace=wrap;fillColor=#f8cecc;shape=mxgraph.archimate3.application;appType=proc;archiType=rounded;fontSize=9;strokeColor=#b85450;" vertex="1" parent="afYJyTv2eytd4Z8SvwU5-1">
          <mxGeometry x="220" y="110" width="80" height="40" as="geometry" />
        </mxCell>
      </root>
    </mxGraphModel>
  </diagram>
</mxfile>
